<svg xmlns="http://www.w3.org/2000/svg" width="14.824" height="17.415" viewBox="0 0 14.824 17.415"><path d="M7.413.5A2.873 2.873 0 0 0 4.54 3.373v2.052H2.427a1.231 1.231 0 0 0-1.228 1.137L.504 15.59a1.232 1.232 0 0 0 1.228 1.325h11.364a1.23 1.23 0 0 0 1.227-1.325l-.693-9.028a1.231 1.231 0 0 0-1.229-1.137h-2.112V3.373A2.872 2.872 0 0 0 7.416.5Zm2.052 5.745v1.231a.4105.4105 0 0 0 .821 0V6.25h2.11a.41.41 0 0 1 .41.379l.695 9.028a.411.411 0 0 1-.409.442H1.732a.41.41 0 0 1-.409-.442l.694-9.028a.411.411 0 0 1 .409-.379h2.113v1.231a.4105.4105 0 0 0 .821 0V6.25Zm0-.821V3.372a2.052 2.052 0 0 0-4.1 0v2.052Zm0 0" fill="none" stroke="#fff"/></svg>