<svg xmlns="http://www.w3.org/2000/svg" width="399.64" height="6" viewBox="0 0 399.64 6">
    <path fill="none" stroke="#f43b00" stroke-width="1.5" d="M398.54,3.79a3.86,3.86,0,0,1-2.67-1.3,4.4,4.4,0,0,0-6.44,0,3.86,3.86,0,0,1-2.66,1.3,3.86,3.86,0,0,1-2.67-1.3,4.15,4.15,0,0,0-3.22-1.4h-.13a4.18,4.18,0,0,0-3.22,1.4,3.77,3.77,0,0,1-2.59,1.29,3.79,3.79,0,0,1-2.6-1.29l-.21-.21a4.38,4.38,0,0,0-2.22-1.11h0a3.82,3.82,0,0,0-.68,0l-.22,0a4.15,4.15,0,0,0-3.22,1.4,3.81,3.81,0,0,1-2.59,1.29l-.17,0a3.09,3.09,0,0,1-.53-.09,3.83,3.83,0,0,1-1.88-1.17,4.15,4.15,0,0,0-3.22-1.4h-.19l-.15,0a4.25,4.25,0,0,0-3,1.37,3.77,3.77,0,0,1-2.58,1.29,3.81,3.81,0,0,1-2.59-1.29,4.15,4.15,0,0,0-3.22-1.4h-.15a.67.67,0,0,0-.23,0,4.14,4.14,0,0,0-2.84,1.37,3.37,3.37,0,0,1-5.32,0l-.21-.21a4.41,4.41,0,0,0-6.23.21,3.37,3.37,0,0,1-5.32,0,4.15,4.15,0,0,0-3.22-1.4.45.45,0,0,0-.27,0,4.07,4.07,0,0,0-.61,0A4.15,4.15,0,0,0,318,2.49a3.78,3.78,0,0,1-2.66,1.3,3.78,3.78,0,0,1-2.67-1.3,4.4,4.4,0,0,0-6.44,0,3.37,3.37,0,0,1-5.32,0l-.21-.21a4.41,4.41,0,0,0-6.23.21A3.77,3.77,0,0,1,292,3.77a3.79,3.79,0,0,1-2.52-1.28,4.15,4.15,0,0,0-3.22-1.4h-.29a.46.46,0,0,0-.26,0A4.14,4.14,0,0,0,283,2.49a3.78,3.78,0,0,1-2.66,1.3,3.78,3.78,0,0,1-2.67-1.3,4.4,4.4,0,0,0-6.44,0,3.23,3.23,0,0,1-5.16,0,4.18,4.18,0,0,0-3.22-1.4h-.17a5.07,5.07,0,0,0-.56,0l-.23,0a4.34,4.34,0,0,0-2.42,1.31,3.81,3.81,0,0,1-2.58,1.29,3.81,3.81,0,0,1-2.59-1.29,4.15,4.15,0,0,0-3.22-1.4h-.15a.63.63,0,0,0-.23,0,4.14,4.14,0,0,0-2.84,1.37,3.78,3.78,0,0,1-2.66,1.3,3.78,3.78,0,0,1-2.67-1.3l-.2-.21a4.41,4.41,0,0,0-6.23.21,3.78,3.78,0,0,1-2.66,1.3,3.78,3.78,0,0,1-2.67-1.3,4.14,4.14,0,0,0-3.21-1.4c-.15,0-.26,0-.28,0a4,4,0,0,0-.6,0,4.19,4.19,0,0,0-3.23,1.4,3.37,3.37,0,0,1-5.32,0,4.4,4.4,0,0,0-6.44,0,3.37,3.37,0,0,1-5.32,0l-.21-.21a4.41,4.41,0,0,0-6.23.21,3.78,3.78,0,0,1-2.66,1.3,3.74,3.74,0,0,1-2.66-1.3,4.18,4.18,0,0,0-3.22-1.4h0a4.15,4.15,0,0,0-3.22,1.4,3.78,3.78,0,0,1-2.66,1.3,3.78,3.78,0,0,1-2.67-1.3,4.4,4.4,0,0,0-6.44,0,3.22,3.22,0,0,1-5.16,0A4.18,4.18,0,0,0,168,1.09h-.17a5.07,5.07,0,0,0-.56,0l-.23,0a4.34,4.34,0,0,0-2.42,1.31A3.81,3.81,0,0,1,162,3.78a3.81,3.81,0,0,1-2.58-1.29,4.17,4.17,0,0,0-3.22-1.4h-.15a.6.6,0,0,0-.23,0A4.14,4.14,0,0,0,153,2.49a3.78,3.78,0,0,1-2.66,1.3,3.78,3.78,0,0,1-2.67-1.3l-.2-.21a4.41,4.41,0,0,0-6.23.21,3.78,3.78,0,0,1-2.67,1.3,3.78,3.78,0,0,1-2.66-1.3,4.15,4.15,0,0,0-3.22-1.4.45.45,0,0,0-.27,0,4,4,0,0,0-.6,0,4.19,4.19,0,0,0-3.23,1.4,3.37,3.37,0,0,1-5.32,0,4.4,4.4,0,0,0-6.44,0,3.76,3.76,0,0,1-2.66,1.3,3.74,3.74,0,0,1-2.66-1.3l-.21-.21a4.41,4.41,0,0,0-6.23.21,3.78,3.78,0,0,1-2.66,1.3,3.78,3.78,0,0,1-2.67-1.3,4.14,4.14,0,0,0-3.21-1.4H96.3a4.15,4.15,0,0,0-3.22,1.4,3.78,3.78,0,0,1-2.67,1.3,3.78,3.78,0,0,1-2.66-1.3,4.4,4.4,0,0,0-6.44,0,3.23,3.23,0,0,1-5.16,0,4.19,4.19,0,0,0-3.23-1.4h-.16a5.07,5.07,0,0,0-.56,0l-.23,0a4.3,4.3,0,0,0-2.42,1.31A3.81,3.81,0,0,1,67,3.78a3.79,3.79,0,0,1-2.58-1.29,4.18,4.18,0,0,0-3.22-1.4H61a.6.6,0,0,0-.23,0,4.14,4.14,0,0,0-2.84,1.37,3.78,3.78,0,0,1-2.66,1.3,3.78,3.78,0,0,1-2.67-1.3l-.21-.21a4.41,4.41,0,0,0-6.23.21,3.74,3.74,0,0,1-2.66,1.3,3.78,3.78,0,0,1-2.66-1.3,4.15,4.15,0,0,0-3.22-1.4.45.45,0,0,0-.27,0,4,4,0,0,0-.6,0,4.19,4.19,0,0,0-3.23,1.4,3.74,3.74,0,0,1-2.66,1.3,3.74,3.74,0,0,1-2.66-1.3,4.4,4.4,0,0,0-6.44,0,3.78,3.78,0,0,1-2.66,1.3,3.78,3.78,0,0,1-2.67-1.3l-.2-.21A4.41,4.41,0,0,0,10,2.49a3.78,3.78,0,0,1-2.67,1.3,3.78,3.78,0,0,1-2.66-1.3,4.15,4.15,0,0,0-3.22-1.4c-.15,0-.28,0-.28.06s.13.06.28.06a3.78,3.78,0,0,1,2.67,1.3,4.15,4.15,0,0,0,3.22,1.4,4.18,4.18,0,0,0,3.22-1.4,3.74,3.74,0,0,1,2.66-1.3,3.78,3.78,0,0,1,2.66,1.3,4.12,4.12,0,0,0,3.22,1.4,4.15,4.15,0,0,0,3.22-1.4A3.74,3.74,0,0,1,25,1.21a3.74,3.74,0,0,1,2.66,1.3,4.12,4.12,0,0,0,3.22,1.4,4.15,4.15,0,0,0,3.22-1.4,3.76,3.76,0,0,1,2.67-1.3,3.78,3.78,0,0,1,2.66,1.3,4.15,4.15,0,0,0,3.22,1.4.48.48,0,0,0,.27-.05,3.08,3.08,0,0,0,.61.05,4.14,4.14,0,0,0,3.21-1.4,3.78,3.78,0,0,1,2.67-1.3,3.74,3.74,0,0,1,2.65,1.3,4.15,4.15,0,0,0,3.22,1.4,4.15,4.15,0,0,0,3.23-1.4,3.73,3.73,0,0,1,2.58-1.29,3.77,3.77,0,0,1,2.59,1.29,4.15,4.15,0,0,0,3.22,1.4H67a4.15,4.15,0,0,0,3.22-1.4,3.24,3.24,0,0,1,5.17,0,4.12,4.12,0,0,0,3.22,1.4h.16a.71.71,0,0,0,.23,0,4.14,4.14,0,0,0,2.83-1.37,3.37,3.37,0,0,1,5.32,0,4.15,4.15,0,0,0,3.22,1.4,4.19,4.19,0,0,0,3.23-1.4,3.37,3.37,0,0,1,5.32,0,4.18,4.18,0,0,0,3.22,1.4h.21a4.18,4.18,0,0,0,3.22-1.4,3.37,3.37,0,0,1,5.32,0,4.12,4.12,0,0,0,3.22,1.4,4.15,4.15,0,0,0,3.22-1.4,3.37,3.37,0,0,1,5.32,0,4.12,4.12,0,0,0,3.22,1.4,4.15,4.15,0,0,0,3.22-1.4,3.38,3.38,0,0,1,5.33,0,4.15,4.15,0,0,0,3.22,1.4.48.48,0,0,0,.27-.05,3.08,3.08,0,0,0,.61.05,4.18,4.18,0,0,0,3.22-1.4,3.37,3.37,0,0,1,5.32,0,4.12,4.12,0,0,0,3.22,1.4,4.15,4.15,0,0,0,3.22-1.4,3.24,3.24,0,0,1,5.17,0,4.17,4.17,0,0,0,3.22,1.4h.15a4.15,4.15,0,0,0,3.22-1.4,3.77,3.77,0,0,1,2.59-1.29,3.73,3.73,0,0,1,2.58,1.29,4.12,4.12,0,0,0,3.22,1.4h.16a.67.67,0,0,0,.23,0,4.14,4.14,0,0,0,2.83-1.37,3.38,3.38,0,0,1,5.33,0,4.12,4.12,0,0,0,3.22,1.4,4.18,4.18,0,0,0,3.22-1.4,3.37,3.37,0,0,1,5.32,0,4.19,4.19,0,0,0,3.23,1.4h0a4.17,4.17,0,0,0,3.22-1.4,3.37,3.37,0,0,1,5.32,0A4.12,4.12,0,0,0,209,3.91a4.15,4.15,0,0,0,3.22-1.4,3.37,3.37,0,0,1,5.32,0,4.13,4.13,0,0,0,3.22,1.4A4.15,4.15,0,0,0,224,2.51a3.38,3.38,0,0,1,5.33,0,4.15,4.15,0,0,0,3.22,1.4.48.48,0,0,0,.27-.05,3.08,3.08,0,0,0,.61.05,4.18,4.18,0,0,0,3.22-1.4,3.37,3.37,0,0,1,5.32,0,4.12,4.12,0,0,0,3.22,1.4,4.15,4.15,0,0,0,3.22-1.4,3.24,3.24,0,0,1,5.17,0,4.17,4.17,0,0,0,3.22,1.4H257a4.15,4.15,0,0,0,3.22-1.4,3.77,3.77,0,0,1,2.59-1.29,3.73,3.73,0,0,1,2.58,1.29,4.12,4.12,0,0,0,3.22,1.4h.16a.67.67,0,0,0,.23,0,4.14,4.14,0,0,0,2.83-1.37,3.38,3.38,0,0,1,5.33,0,4.12,4.12,0,0,0,3.22,1.4,4.18,4.18,0,0,0,3.22-1.4,3.11,3.11,0,0,1,5,0,4.17,4.17,0,0,0,3.22,1.4h.3a.56.56,0,0,0,.25,0A4.15,4.15,0,0,0,295,2.51a3.37,3.37,0,0,1,5.32,0,4.12,4.12,0,0,0,3.22,1.4,4.12,4.12,0,0,0,3.22-1.4,3.38,3.38,0,0,1,5.33,0,4.12,4.12,0,0,0,3.22,1.4,4.18,4.18,0,0,0,3.22-1.4,3.37,3.37,0,0,1,5.32,0,4.19,4.19,0,0,0,3.23,1.4.44.44,0,0,0,.26-.05,3.08,3.08,0,0,0,.61.05,4.15,4.15,0,0,0,3.22-1.4,3.37,3.37,0,0,1,5.32,0,4.12,4.12,0,0,0,3.22,1.4A4.12,4.12,0,0,0,343,2.51a3.25,3.25,0,0,1,5.18,0,4.15,4.15,0,0,0,3.22,1.4h.14a4.19,4.19,0,0,0,3.23-1.4,3.22,3.22,0,0,1,5.16,0,4.15,4.15,0,0,0,3.22,1.4h.16l.21,0a4.13,4.13,0,0,0,3-1.38,3.26,3.26,0,0,1,5.19,0,4.12,4.12,0,0,0,3.22,1.4H375a4.15,4.15,0,0,0,3.22-1.4,3.27,3.27,0,0,1,5.2,0,4.15,4.15,0,0,0,3.22,1.4h.13A4.18,4.18,0,0,0,390,2.51a3.36,3.36,0,0,1,5.32,0,4.19,4.19,0,0,0,3.23,1.4c.15,0,.28,0,.28-.06S398.69,3.79,398.54,3.79ZM40,2.49a4.13,4.13,0,0,0-2-1.23A3.76,3.76,0,0,1,40.3,2.51a4.07,4.07,0,0,0,2,1.22A3.75,3.75,0,0,1,40,2.49Zm95,0a4.13,4.13,0,0,0-2-1.23,3.76,3.76,0,0,1,2.34,1.25,4.11,4.11,0,0,0,2,1.22A3.75,3.75,0,0,1,135,2.49Zm94.87,0a4.13,4.13,0,0,0-2-1.23,3.76,3.76,0,0,1,2.34,1.25,4.11,4.11,0,0,0,2,1.22A3.75,3.75,0,0,1,229.89,2.49Zm94.54,0a4.13,4.13,0,0,0-2-1.23,3.74,3.74,0,0,1,2.34,1.25,4.1,4.1,0,0,0,2,1.22A3.8,3.8,0,0,1,324.43,2.49Z" transform="translate(-0.18 -0.09)"></path>
</svg>
