<svg xmlns="http://www.w3.org/2000/svg" width="18.981" height="4.994" viewBox="0 0 18.981 4.994">
  <g transform="translate(-361.01 -3072)">
    <path d="M1.511.554C.861.972.125,1.446.125,2.225S.861,3.477,1.511,3.9c.763.491,1.483.954,1.483,2.021s-.721,1.53-1.483,2.02c-.65.418-1.386.891-1.386,1.67,0,.1-.028.179-.062.179S0,9.706,0,9.606c0-1.067.721-1.53,1.483-2.02.65-.418,1.386-.891,1.386-1.67s-.736-1.252-1.386-1.67C.721,3.755,0,3.292,0,2.225S.721.695,1.483.2C2.133-.214,2.273.064,1.511.554Z" transform="translate(371.795 3073) rotate(90)" fill="none" stroke="#f43b00" stroke-width="2"/>
    <path  d="M1.511.554C.861.972.125,1.446.125,2.225S.861,3.477,1.511,3.9c.763.491,1.483.954,1.483,2.021s-.721,1.53-1.483,2.02c-.65.418-1.386.891-1.386,1.67,0,.1-.028.179-.062.179S0,9.706,0,9.606c0-1.067.721-1.53,1.483-2.02.65-.418,1.386-.891,1.386-1.67s-.736-1.252-1.386-1.67C.721,3.755,0,3.292,0,2.225S.721.695,1.483.2C2.133-.214,2.273.064,1.511.554Z" transform="translate(378.99 3073) rotate(90)" fill="none" stroke="#f43b00" stroke-width="2"/>
  </g>
</svg>
