<svg xmlns="http://www.w3.org/2000/svg" width="91.5" height="4.994" viewBox="0 0 91.5 4.994">
  <g transform="translate(-1309.5 -370.177)">
    <path d="M2.994.329a4.954,4.954,0,0,1-1.483,3.7A4.494,4.494,0,0,0,.125,7.1a4.5,4.5,0,0,0,1.386,3.063,4.953,4.953,0,0,1,1.483,3.7,4.948,4.948,0,0,1-1.483,3.7A4.49,4.49,0,0,0,.125,20.626a4.491,4.491,0,0,0,1.386,3.062,4.951,4.951,0,0,1,1.483,3.7,4.949,4.949,0,0,1-1.483,3.7A4.49,4.49,0,0,0,.125,34.154a4.487,4.487,0,0,0,1.386,3.06,4.947,4.947,0,0,1,1.483,3.7,4.947,4.947,0,0,1-1.483,3.7A4.488,4.488,0,0,0,.125,47.675C.125,47.857.1,48,.063,48S0,47.857,0,47.675a4.946,4.946,0,0,1,1.483-3.7,4.489,4.489,0,0,0,1.386-3.059,4.49,4.49,0,0,0-1.386-3.06,5.36,5.36,0,0,1,0-7.4,4.49,4.49,0,0,0,1.386-3.061,4.492,4.492,0,0,0-1.386-3.061A4.951,4.951,0,0,1,0,20.626a4.949,4.949,0,0,1,1.483-3.7,4.49,4.49,0,0,0,1.386-3.061A4.5,4.5,0,0,0,1.483,10.8,4.953,4.953,0,0,1,0,7.1a4.953,4.953,0,0,1,1.483-3.7A4.5,4.5,0,0,0,2.869.329C2.869.147,2.9,0,2.932,0S2.994.147,2.994.329Z" transform="translate(1358.504 371.177) rotate(90)" fill="none" stroke="#f43b00" stroke-width="2"/>
    <path d="M2.994.329a4.954,4.954,0,0,1-1.483,3.7A4.494,4.494,0,0,0,.125,7.1a4.5,4.5,0,0,0,1.386,3.063,4.953,4.953,0,0,1,1.483,3.7,4.948,4.948,0,0,1-1.483,3.7A4.49,4.49,0,0,0,.125,20.626a4.491,4.491,0,0,0,1.386,3.062,4.951,4.951,0,0,1,1.483,3.7,4.949,4.949,0,0,1-1.483,3.7A4.49,4.49,0,0,0,.125,34.154a4.487,4.487,0,0,0,1.386,3.06,4.947,4.947,0,0,1,1.483,3.7,4.947,4.947,0,0,1-1.483,3.7A4.488,4.488,0,0,0,.125,47.675C.125,47.857.1,48,.063,48S0,47.857,0,47.675a4.946,4.946,0,0,1,1.483-3.7,4.489,4.489,0,0,0,1.386-3.059,4.49,4.49,0,0,0-1.386-3.06,5.36,5.36,0,0,1,0-7.4,4.49,4.49,0,0,0,1.386-3.061,4.492,4.492,0,0,0-1.386-3.061A4.951,4.951,0,0,1,0,20.626a4.949,4.949,0,0,1,1.483-3.7,4.49,4.49,0,0,0,1.386-3.061A4.5,4.5,0,0,0,1.483,10.8,4.953,4.953,0,0,1,0,7.1a4.953,4.953,0,0,1,1.483-3.7A4.5,4.5,0,0,0,2.869.329C2.869.147,2.9,0,2.932,0S2.994.147,2.994.329Z" transform="translate(1400 371.177) rotate(90)" fill="none" stroke="#f43b00" stroke-width="2"/>
  </g>
</svg>
